<svg viewBox="0 0 20 20" fill="none" xmlns="http://www.w3.org/2000/svg"><circle cx="10" cy="10" r="10" fill="#000"></circle><path d="m13.021 5.508-2.09 3.103a.222.222 0 0 0 .334.292l2.056-1.777a.082.082 0 0 1 .125.016c.009.014.013.03.013.046v5.588a.084.084 0 0 1-.055.077.083.083 0 0 1-.092-.024L7.094 5.384A1.065 1.065 0 0 0 6.281 5h-.216A1.064 1.064 0 0 0 5 6.066v7.868a1.066 1.066 0 0 0 1.972.558l2.09-3.103a.222.222 0 0 0-.333-.292l-2.057 1.777a.082.082 0 0 1-.09.015.082.082 0 0 1-.047-.077V7.23a.083.083 0 0 1 .146-.053L12.9 14.62a1.066 1.066 0 0 0 .814.378h.222A1.065 1.065 0 0 0 15 13.933V6.066a1.067 1.067 0 0 0-1.979-.558Z" fill="#fff"></path></svg>